<?xml version="1.0" standalone="no"?>
<!DOCTYPE svg PUBLIC "-//W3C//DTD SVG 20010904//EN"
 "http://www.w3.org/TR/2001/REC-SVG-20010904/DTD/svg10.dtd">
<svg version="1.0" xmlns="http://www.w3.org/2000/svg"
 width="700.000000pt" height="700.000000pt" viewBox="0 0 700.000000 700.000000"
 preserveAspectRatio="xMidYMid meet">
<metadata>
Created by potrace 1.11, written by Peter Selinger 2001-2013
</metadata>
<g transform="translate(0.000000,700.000000) scale(0.100000,-0.100000)"
fill="#000000" stroke="none">
<path d="M1091 6848 c-232 -26 -449 -177 -569 -398 -39 -73 -61 -139 -78 -240
-8 -45 -9 -4293 -2 -4306 7 -11 853 -13 864 -2 4 4 7 922 8 2040 l1 2033 1749
5 1748 5 0 428 c0 236 -3 431 -7 435 -8 9 -3634 9 -3714 0z"/>
<path d="M2268 5685 c-2 -2 -21 -5 -43 -8 -135 -19 -289 -100 -398 -211 -102
-102 -187 -250 -203 -354 -3 -21 -9 -41 -12 -47 -10 -14 -9 -4219 0 -4287 32
-235 212 -467 444 -570 143 -64 34 -61 1844 -62 905 -1 1677 2 1715 7 303 34
562 267 635 571 19 79 20 133 20 2202 0 2106 0 2121 -21 2195 -74 268 -260
457 -539 546 -51 16 -169 17 -1747 19 -931 1 -1694 0 -1695 -1z m3107 -874
c20 -1 20 -2 20 -1896 l0 -1895 -1457 0 c-1382 0 -1458 1 -1458 18 -1 28 -1
3673 0 3724 0 41 3 47 23 50 17 2 2788 1 2872 -1z"/>
</g>
</svg>
